<?xml version="1.0" encoding="UTF-8" standalone="no"?>
<!DOCTYPE svg PUBLIC "-//W3C//DTD SVG 1.1//EN"
 "http://www.w3.org/Graphics/SVG/1.1/DTD/svg11.dtd">
<!-- Generated by graphviz version 7.1.0 (20230121.1956)
 -->
<!-- Pages: 1 -->
<svg width="409pt" height="160pt"
 viewBox="0.00 0.00 409.27 159.97" xmlns="http://www.w3.org/2000/svg" xmlns:xlink="http://www.w3.org/1999/xlink">
<g id="graph0" class="graph" transform="scale(1 1) rotate(0) translate(4 155.97)">
<polygon fill="white" stroke="none" points="-4,4 -4,-155.97 405.27,-155.97 405.27,4 -4,4"/>
<!-- x1 -->
<g id="node1" class="node">
<title>x1</title>
<polygon fill="lightgray" stroke="black" points="47.27,-139.75 22.27,-139.75 22.27,-121.75 47.27,-121.75 47.27,-139.75"/>
<text text-anchor="middle" x="34.77" y="-128.55" font-family="Times New Roman,serif" font-size="9.00">x1</text>
</g>
<!-- x2 -->
<g id="node2" class="node">
<title>x2</title>
<polygon fill="lightgray" stroke="black" points="90.27,-139.75 65.27,-139.75 65.27,-121.75 90.27,-121.75 90.27,-139.75"/>
<text text-anchor="middle" x="77.77" y="-128.55" font-family="Times New Roman,serif" font-size="9.00">x2</text>
</g>
<!-- setosa -->
<g id="node5" class="node">
<title>setosa</title>
<ellipse fill="lightblue" stroke="black" cx="118.77" cy="-36.77" rx="27.65" ry="27.65"/>
<text text-anchor="middle" x="118.77" y="-34.57" font-family="Times New Roman,serif" font-size="9.00">setosa</text>
</g>
<!-- x2&#45;&gt;setosa -->
<g id="edge1" class="edge">
<title>x2&#45;&gt;setosa</title>
<path fill="none" stroke="green" stroke-width="0.55" d="M81.55,-121.26C86.54,-110.08 95.6,-89.75 103.54,-71.94"/>
<polygon fill="green" stroke="green" stroke-width="0.55" points="106.58,-73.7 107.46,-63.15 100.19,-70.85 106.58,-73.7"/>
</g>
<!-- versicolor -->
<g id="node7" class="node">
<title>versicolor</title>
<ellipse fill="lightblue" stroke="black" cx="36.77" cy="-36.77" rx="36.54" ry="36.54"/>
<text text-anchor="middle" x="36.77" y="-34.57" font-family="Times New Roman,serif" font-size="9.00">versicolor</text>
</g>
<!-- x2&#45;&gt;versicolor -->
<g id="edge2" class="edge">
<title>x2&#45;&gt;versicolor</title>
<path fill="none" stroke="red" stroke-width="0.43" d="M73.99,-121.26C69.75,-111.76 62.57,-95.65 55.64,-80.1"/>
<polygon fill="red" stroke="red" stroke-width="0.43" points="58.92,-78.86 51.65,-71.15 52.52,-81.71 58.92,-78.86"/>
</g>
<!-- x3 -->
<g id="node3" class="node">
<title>x3</title>
<polygon fill="lightgray" stroke="black" points="401.27,-139.75 376.27,-139.75 376.27,-121.75 401.27,-121.75 401.27,-139.75"/>
<text text-anchor="middle" x="388.77" y="-128.55" font-family="Times New Roman,serif" font-size="9.00">x3</text>
</g>
<!-- x4 -->
<g id="node4" class="node">
<title>x4</title>
<polygon fill="lightgray" stroke="black" points="201.27,-139.75 176.27,-139.75 176.27,-121.75 201.27,-121.75 201.27,-139.75"/>
<text text-anchor="middle" x="188.77" y="-128.55" font-family="Times New Roman,serif" font-size="9.00">x4</text>
</g>
<!-- x4&#45;&gt;setosa -->
<g id="edge3" class="edge">
<title>x4&#45;&gt;setosa</title>
<path fill="none" stroke="red" stroke-width="1.49" d="M182.31,-121.26C173.3,-109.43 156.49,-87.33 142.42,-68.84"/>
<polygon fill="red" stroke="red" stroke-width="1.49" points="145.37,-66.94 136.52,-61.1 139.8,-71.18 145.37,-66.94"/>
</g>
<!-- virginica -->
<g id="node6" class="node">
<title>virginica</title>
<ellipse fill="lightblue" stroke="black" cx="264.77" cy="-36.77" rx="33.47" ry="33.47"/>
<text text-anchor="middle" x="264.77" y="-34.57" font-family="Times New Roman,serif" font-size="9.00">virginica</text>
</g>
<!-- x4&#45;&gt;virginica -->
<g id="edge5" class="edge">
<title>x4&#45;&gt;virginica</title>
<path fill="none" stroke="red" stroke-width="0.11" d="M195.78,-121.26C205.24,-109.82 222.61,-88.8 237.55,-70.71"/>
<polygon fill="red" stroke="red" stroke-width="0.11" points="240,-73.24 243.67,-63.3 234.6,-68.78 240,-73.24"/>
</g>
<!-- x4&#45;&gt;versicolor -->
<g id="edge4" class="edge">
<title>x4&#45;&gt;versicolor</title>
<path fill="none" stroke="green" stroke-width="1.08" d="M175.81,-123.92C155.24,-114.44 114.11,-94.62 81.77,-73.54 79.03,-71.75 76.25,-69.83 73.49,-67.85"/>
<polygon fill="green" stroke="green" stroke-width="1.08" points="75.66,-65.11 65.56,-61.92 71.47,-70.71 75.66,-65.11"/>
</g>
<!-- 1030 -->
<g id="node9" class="node">
<title>1030</title>
<ellipse fill="white" stroke="black" cx="188.77" cy="-36.77" rx="25" ry="25"/>
<text text-anchor="middle" x="188.77" y="-34.57" font-family="Times New Roman,serif" font-size="9.00">1030</text>
</g>
<!-- x4&#45;&gt;1030 -->
<g id="edge7" class="edge">
<title>x4&#45;&gt;1030</title>
<path fill="none" stroke="green" stroke-width="0.27" d="M188.77,-121.26C188.77,-110.11 188.77,-89.85 188.77,-72.08"/>
<polygon fill="green" stroke="green" stroke-width="0.27" points="192.27,-72.41 188.77,-62.41 185.27,-72.41 192.27,-72.41"/>
</g>
<!-- 871 -->
<g id="node10" class="node">
<title>871</title>
<ellipse fill="white" stroke="black" cx="336.77" cy="-36.77" rx="21.43" ry="21.43"/>
<text text-anchor="middle" x="336.77" y="-34.57" font-family="Times New Roman,serif" font-size="9.00">871</text>
</g>
<!-- x4&#45;&gt;871 -->
<g id="edge6" class="edge">
<title>x4&#45;&gt;871</title>
<path fill="none" stroke="green" stroke-width="0.15" d="M201.46,-125.73C224.19,-118.11 272.68,-99.93 306.77,-73.54 310.91,-70.33 314.87,-66.47 318.48,-62.48"/>
<polygon fill="green" stroke="green" stroke-width="0.15" points="321.03,-64.88 324.79,-54.98 315.68,-60.38 321.03,-64.88"/>
</g>
<!-- 483 -->
<g id="node8" class="node">
<title>483</title>
<ellipse fill="white" stroke="black" cx="336.77" cy="-130.75" rx="21.43" ry="21.43"/>
<text text-anchor="middle" x="336.77" y="-128.55" font-family="Times New Roman,serif" font-size="9.00">483</text>
</g>
<!-- 483&#45;&gt;871 -->
<g id="edge8" class="edge">
<title>483&#45;&gt;871</title>
<path fill="none" stroke="green" stroke-width="0.17" d="M336.77,-108.88C336.77,-97 336.77,-81.9 336.77,-68.67"/>
<polygon fill="green" stroke="green" stroke-width="0.17" points="340.27,-68.82 336.77,-58.82 333.27,-68.82 340.27,-68.82"/>
</g>
</g>
</svg>
