<?xml version="1.0" encoding="UTF-8" standalone="no"?>
<!DOCTYPE svg PUBLIC "-//W3C//DTD SVG 1.1//EN"
 "http://www.w3.org/Graphics/SVG/1.1/DTD/svg11.dtd">
<!-- Generated by graphviz version 7.1.0 (20230121.1956)
 -->
<!-- Pages: 1 -->
<svg width="259pt" height="221pt"
 viewBox="0.00 0.00 258.81 221.04" xmlns="http://www.w3.org/2000/svg" xmlns:xlink="http://www.w3.org/1999/xlink">
<g id="graph0" class="graph" transform="scale(1 1) rotate(0) translate(4 217.04)">
<polygon fill="white" stroke="none" points="-4,4 -4,-217.04 254.81,-217.04 254.81,4 -4,4"/>
<!-- x1 -->
<g id="node1" class="node">
<title>x1</title>
<polygon fill="lightgray" stroke="black" points="45.73,-143.29 20.73,-143.29 20.73,-125.29 45.73,-125.29 45.73,-143.29"/>
<text text-anchor="middle" x="33.23" y="-132.09" font-family="Times New Roman,serif" font-size="9.00">x1</text>
</g>
<!-- virginica -->
<g id="node6" class="node">
<title>virginica</title>
<ellipse fill="lightblue" stroke="black" cx="33.23" cy="-36.77" rx="33.47" ry="33.47"/>
<text text-anchor="middle" x="33.23" y="-34.57" font-family="Times New Roman,serif" font-size="9.00">virginica</text>
</g>
<!-- x1&#45;&gt;virginica -->
<g id="edge1" class="edge">
<title>x1&#45;&gt;virginica</title>
<path fill="none" stroke="green" stroke-width="0.29" stroke-dasharray="1,5" d="M33.23,-124.81C33.23,-114.75 33.23,-97.24 33.23,-80.54"/>
<polygon fill="green" stroke="green" stroke-width="0.29" points="36.73,-80.77 33.23,-70.77 29.73,-80.77 36.73,-80.77"/>
</g>
<!-- versicolor -->
<g id="node7" class="node">
<title>versicolor</title>
<ellipse fill="lightblue" stroke="black" cx="141.23" cy="-36.77" rx="36.54" ry="36.54"/>
<text text-anchor="middle" x="141.23" y="-34.57" font-family="Times New Roman,serif" font-size="9.00">versicolor</text>
</g>
<!-- x1&#45;&gt;versicolor -->
<g id="edge2" class="edge">
<title>x1&#45;&gt;versicolor</title>
<path fill="none" stroke="red" stroke-width="0.79" d="M39.93,-125.08C43.92,-120.37 49.17,-114.43 54.23,-109.54 69.8,-94.5 88.14,-79.07 103.96,-66.39"/>
<polygon fill="red" stroke="red" stroke-width="0.79" points="105.86,-69.35 111.52,-60.39 101.51,-63.86 105.86,-69.35"/>
</g>
<!-- x2 -->
<g id="node2" class="node">
<title>x2</title>
<polygon fill="lightgray" stroke="black" points="194.73,-143.29 169.73,-143.29 169.73,-125.29 194.73,-125.29 194.73,-143.29"/>
<text text-anchor="middle" x="182.23" y="-132.09" font-family="Times New Roman,serif" font-size="9.00">x2</text>
</g>
<!-- setosa -->
<g id="node5" class="node">
<title>setosa</title>
<ellipse fill="lightblue" stroke="black" cx="223.23" cy="-36.77" rx="27.65" ry="27.65"/>
<text text-anchor="middle" x="223.23" y="-34.57" font-family="Times New Roman,serif" font-size="9.00">setosa</text>
</g>
<!-- x2&#45;&gt;setosa -->
<g id="edge3" class="edge">
<title>x2&#45;&gt;setosa</title>
<path fill="none" stroke="green" stroke-width="0.57" d="M185.87,-124.81C190.89,-113.12 200.23,-91.36 208.32,-72.53"/>
<polygon fill="green" stroke="green" stroke-width="0.57" points="211.45,-74.09 212.18,-63.52 205.02,-71.32 211.45,-74.09"/>
</g>
<!-- x2&#45;&gt;versicolor -->
<g id="edge11" class="edge">
<title>x2&#45;&gt;versicolor</title>
<path fill="none" stroke="red" stroke-width="0.19" d="M178.6,-124.81C174.23,-114.64 166.59,-96.85 159.35,-79.98"/>
<polygon fill="red" stroke="red" stroke-width="0.19" points="162.67,-78.84 155.51,-71.03 156.24,-81.6 162.67,-78.84"/>
</g>
<!-- x3 -->
<g id="node3" class="node">
<title>x3</title>
<polygon fill="lightgray" stroke="black" points="237.73,-143.29 212.73,-143.29 212.73,-125.29 237.73,-125.29 237.73,-143.29"/>
<text text-anchor="middle" x="225.23" y="-132.09" font-family="Times New Roman,serif" font-size="9.00">x3</text>
</g>
<!-- x3&#45;&gt;setosa -->
<g id="edge4" class="edge">
<title>x3&#45;&gt;setosa</title>
<path fill="none" stroke="red" stroke-width="1.01" d="M225.06,-124.81C224.83,-113.87 224.41,-94.12 224.04,-76.19"/>
<polygon fill="red" stroke="red" stroke-width="1.01" points="227.54,-76.24 223.83,-66.32 220.54,-76.39 227.54,-76.24"/>
</g>
<!-- x3&#45;&gt;versicolor -->
<g id="edge5" class="edge">
<title>x3&#45;&gt;versicolor</title>
<path fill="none" stroke="green" stroke-width="1.08" d="M217.78,-124.81C207.66,-113.3 188.95,-92.03 172.56,-73.39"/>
<polygon fill="green" stroke="green" stroke-width="1.08" points="175.31,-71.21 166.07,-66.01 170.05,-75.84 175.31,-71.21"/>
</g>
<!-- x4 -->
<g id="node4" class="node">
<title>x4</title>
<polygon fill="lightgray" stroke="black" points="100.73,-213.04 75.73,-213.04 75.73,-195.04 100.73,-195.04 100.73,-213.04"/>
<text text-anchor="middle" x="88.23" y="-201.84" font-family="Times New Roman,serif" font-size="9.00">x4</text>
</g>
<!-- x4&#45;&gt;virginica -->
<g id="edge6" class="edge">
<title>x4&#45;&gt;virginica</title>
<path fill="none" stroke="red" stroke-width="0.57" d="M75.28,-199.96C57.2,-194.89 25.07,-182.87 11.23,-159.04 -3.26,-134.07 3.64,-101.74 13.4,-76.74"/>
<polygon fill="red" stroke="red" stroke-width="0.57" points="16.57,-78.23 17.21,-67.66 10.11,-75.52 16.57,-78.23"/>
</g>
<!-- x4&#45;&gt;versicolor -->
<g id="edge7" class="edge">
<title>x4&#45;&gt;versicolor</title>
<path fill="none" stroke="red" stroke-width="0.15" d="M96.71,-194.79C104.66,-186.52 116.2,-173.05 122.23,-159.04 132.44,-135.34 137.24,-106.93 139.47,-83.57"/>
<polygon fill="red" stroke="red" stroke-width="0.15" points="142.94,-84.04 140.28,-73.78 135.97,-83.46 142.94,-84.04"/>
</g>
<!-- 1000 -->
<g id="node8" class="node">
<title>1000</title>
<ellipse fill="white" stroke="black" cx="88.23" cy="-134.29" rx="25" ry="25"/>
<text text-anchor="middle" x="88.23" y="-132.09" font-family="Times New Roman,serif" font-size="9.00">1000</text>
</g>
<!-- x4&#45;&gt;1000 -->
<g id="edge8" class="edge">
<title>x4&#45;&gt;1000</title>
<path fill="none" stroke="red" stroke-width="0.43" d="M88.23,-194.73C88.23,-188.48 88.23,-179.46 88.23,-170.33"/>
<polygon fill="red" stroke="red" stroke-width="0.43" points="91.73,-170.36 88.23,-160.36 84.73,-170.36 91.73,-170.36"/>
</g>
<!-- 1000&#45;&gt;setosa -->
<g id="edge10" class="edge">
<title>1000&#45;&gt;setosa</title>
<path fill="none" stroke="green" stroke-width="0.37" d="M110.45,-121.88C131.18,-110.78 162.54,-92.8 187.23,-73.54 190.67,-70.86 194.13,-67.87 197.46,-64.81"/>
<polygon fill="green" stroke="green" stroke-width="0.37" points="199.77,-67.44 204.57,-57.99 194.93,-62.39 199.77,-67.44"/>
</g>
<!-- 1000&#45;&gt;virginica -->
<g id="edge9" class="edge">
<title>1000&#45;&gt;virginica</title>
<path fill="none" stroke="red" stroke-width="0.49" d="M76.03,-112.09C69.82,-101.31 62.1,-87.9 54.92,-75.44"/>
<polygon fill="red" stroke="red" stroke-width="0.49" points="57.97,-73.71 49.95,-66.79 51.9,-77.21 57.97,-73.71"/>
</g>
</g>
</svg>
